<svg xmlns="http://www.w3.org/2000/svg" xmlns:xlink="http://www.w3.org/1999/xlink" width="96" zoomAndPan="magnify" viewBox="0 0 72 72" height="96" preserveAspectRatio="xMidYMid meet" version="1.0"><defs><g/><clipPath id="ac923c390e"><rect x="0" width="52" y="0" height="69"/></clipPath></defs><rect x="-7.2" width="86.4" fill="#ffffff" y="-7.2" height="86.4" fill-opacity="1"/><rect x="-7.2" width="86.4" fill="#00bf63" y="-7.2" height="86.4" fill-opacity="1"/><g transform="matrix(1, 0, 0, 1, 10, 3)"><g clip-path="url(#ac923c390e)"><g fill="#ffffff" fill-opacity="1"><g transform="translate(0.769998, 60.695904)"><g><path d="M 33.4375 -11.390625 C 35.351562 -11.390625 37.210938 -11.675781 39.015625 -12.25 C 40.828125 -12.832031 42.160156 -13.394531 43.015625 -13.9375 L 44.28125 -14.8125 L 49.640625 -4.09375 C 49.460938 -3.957031 49.21875 -3.773438 48.90625 -3.546875 C 48.59375 -3.328125 47.867188 -2.914062 46.734375 -2.3125 C 45.597656 -1.707031 44.378906 -1.179688 43.078125 -0.734375 C 41.785156 -0.285156 40.085938 0.113281 37.984375 0.46875 C 35.890625 0.820312 33.722656 1 31.484375 1 C 26.347656 1 21.476562 -0.257812 16.875 -2.78125 C 12.28125 -5.300781 8.578125 -8.769531 5.765625 -13.1875 C 2.953125 -17.613281 1.546875 -22.394531 1.546875 -27.53125 C 1.546875 -31.414062 2.367188 -35.144531 4.015625 -38.71875 C 5.671875 -42.300781 7.867188 -45.363281 10.609375 -47.90625 C 13.359375 -50.445312 16.566406 -52.476562 20.234375 -54 C 23.898438 -55.519531 27.648438 -56.28125 31.484375 -56.28125 C 35.054688 -56.28125 38.347656 -55.851562 41.359375 -55 C 44.378906 -54.15625 46.515625 -53.304688 47.765625 -52.453125 L 49.640625 -51.1875 L 44.28125 -40.46875 C 43.96875 -40.738281 43.5 -41.0625 42.875 -41.4375 C 42.25 -41.820312 41 -42.328125 39.125 -42.953125 C 37.25 -43.578125 35.351562 -43.890625 33.4375 -43.890625 C 30.394531 -43.890625 27.664062 -43.394531 25.25 -42.40625 C 22.84375 -41.425781 20.9375 -40.128906 19.53125 -38.515625 C 18.125 -36.910156 17.050781 -35.179688 16.3125 -33.328125 C 15.570312 -31.472656 15.203125 -29.585938 15.203125 -27.671875 C 15.203125 -23.472656 16.773438 -19.707031 19.921875 -16.375 C 23.078125 -13.050781 27.582031 -11.390625 33.4375 -11.390625 Z M 33.4375 -11.390625 "/></g></g></g></g></g></svg>